# xmcd CD database file
#
# Track frame offsets:
#	150
#	90497
#	97470
#	164062
#
# Disc length: 2645 seconds
#
# Revision: 1
# Processed by: cddbd v1.5.2PL0 Copyright (c) Steve Scherf et al.
# Submitted via: CDex 1.81
#
DISCID=320a5304
DTITLE=Sadao Watanabe - Round Trip
DYEAR=1970
DGENRE=Jazz
TTITLE0=Round Trip - Going and Coming
TTITLE1=Nostargia
TTITLE2=Pastoral
TTITLE3=Sao Paulo
EXTD=YEAR: 1970
EXTT0=
EXTT1=
EXTT2=
EXTT3=
PLAYORDER=
